<?xml version="1.0" encoding="utf-8"?>
<!-- Generator: Adobe Illustrator 19.2.1, SVG Export Plug-In . SVG Version: 6.00 Build 0)  -->
<svg version="1.1" id="Layer_1" xmlns="http://www.w3.org/2000/svg" xmlns:xlink="http://www.w3.org/1999/xlink" x="0px" y="0px"
	 viewBox="0 0 100 100" style="enable-background:new 0 0 100 100;" xml:space="preserve">
<style type="text/css">
	.st0{fill:#54C2C3;}
	.st1{fill:#FFFFFF;}
</style>
<g>
	<path class="st0" d="M75.5,86.2c-4.1,4-9.2,6.3-15.2,6.9c-2.8,1-5.5,1.8-8,2.4c1.8,0.3,3.6,0.4,5.3,0.4l0,0c8.5,0,15.6-3,21.1-9
		c1.4-1.5,2.6-3.2,3.8-5.2l0,0l0,0c1.9-3.1,3.4-6.8,4.7-10.9c1.5-4.9,2.5-10.4,3-16.3c-0.4-2.9-1.3-5.8-2.4-8.6c0,1.5,0,3-0.1,4.5
		C87.2,60.8,85.2,70,81.9,77c-1.5,3.2-3.2,5.8-5.2,8C76.2,85.4,75.8,85.8,75.5,86.2"/>
	<path class="st0" d="M17.8,72.9c-1.7-1.9-3.2-3.8-4.5-5.8c-1.9-2.8-3.4-5.7-4.3-8.5c-2.2-6.7,2.4-13.6,6.3-18
		c0.5-1.9,1.1-3.8,1.8-5.6C9.3,42.1,3.7,51,6.5,59.5c1.4,4.3,3.9,8.6,7.3,12.9c1.7,2.1,3.5,4.1,5.6,6.1s4.5,4,7,5.8
		c5,3.7,10.5,6.7,16,8.7c2.1-0.1,4.3-0.4,6.6-0.8C37.2,89.4,25.7,81.7,17.8,72.9L17.8,72.9z"/>
	<path class="st0" d="M84.8,19.3c-2.4-3.2-6.8-4.9-13.2-4.9c-0.7,0-1.5,0-2.2,0.1c-1.7,0.1-3.5,0.3-5.4,0.6
		c-10.3,1.5-21.3,5.5-26.7,7.4c-4.1,1.4-8.9,4-13.6,7.3c-0.9,1.8-1.7,3.5-2.4,5.2c5.3-4.3,11.5-8,17-9.9c5.7-2,17.9-6.4,28.5-7.5
		c1.7-0.2,3.3-0.3,4.9-0.3c0.2,0,0.4,0,0.6,0c5.1,0.1,8.6,1.3,10.4,3.8c2,2.7,3.6,8.2,4.4,15c1.1,1.9,2.2,3.9,3.2,6.1
		C89.8,31.9,87.8,23.3,84.8,19.3L84.8,19.3z"/>
</g>
<g>
	<path class="st1" d="M72.9,83c-1.9,1-3.8,1.9-5.7,2.8C60.6,88.9,54.5,91,49,92.1c-2.3,0.5-4.5,0.8-6.6,0.9c-0.6,0-1.2,0.1-1.7,0.1
		c-7.2,0-12.2-2.4-15.6-5.6c-2.9-2.7-4.6-6-5.8-9.1c-2-2-3.9-4-5.6-6.1c0.5,3.7,1.9,9.5,5.6,14.6c0.9,1.2,1.9,2.4,3,3.4
		c4.7,4.4,10.9,6.6,18.4,6.6c3.5,0,7.4-0.5,11.5-1.5c2.6-0.6,5.3-1.5,8-2.5l0,0c2.8-1,5.7-2.2,8.8-3.6l0,0c1.9-0.9,3.8-1.8,5.8-2.9
		c0.2-0.1,0.5-0.2,0.7-0.4c0.4-0.4,0.7-0.7,1.1-1.1c2-2.1,3.7-4.8,5.2-8C79.3,79.2,76.4,81.2,72.9,83L72.9,83z"/>
	<path class="st1" d="M90.2,42c-1-2.2-2.1-4.2-3.2-6.1c-0.6-1-1.2-1.9-1.8-2.8c-0.7-1.1-3.4-5-7.4-9.7c-1.7-2-3.6-4.1-5.6-6.2
		c-0.2,0-0.4,0-0.6,0c-1.6,0-3.2,0.1-4.9,0.3c0.3,0.3,0.7,0.7,1,1c2.8,2.7,5.3,5.4,7.3,7.9c3.6,4.3,6,7.9,6.7,8.9
		c2,3,4.1,6.7,5.7,10.6c1.1,2.7,2,5.6,2.4,8.6c0.4,2.9,0.5,5.9-0.1,8.9c-0.1,0.4-0.2,0.9-0.3,1.3c-0.5,2.1-1.4,4.2-2.6,6.1
		c-1.2,4.1-2.8,7.8-4.7,10.9c5.8-4.5,9.5-9.9,11.1-16c0.2-0.7,0.3-1.4,0.4-2.1C95.2,56,93.2,48.5,90.2,42L90.2,42z"/>
	<path class="st1" d="M46.8,3c-5,0-9.5,2.1-13.3,6.4c-1.2,1.4-2.4,2.8-3.5,4.1C23.8,21,19.7,28,17.2,35c-0.7,1.8-1.3,3.7-1.7,5.5
		l0,0c-1,4-1.7,8.1-2,12.3c-0.3,4.6-0.3,9.2-0.1,14.2c1.3,1.9,2.8,3.9,4.5,5.8c-0.2-1.4-0.4-2.7-0.4-3.3c-0.4-6-0.5-11.4-0.1-16.7
		c0.5-6.3,1.7-12.1,4-17.8l0,0c0.7-1.7,1.5-3.5,2.4-5.2c2.5-4.7,5.7-9.5,10-14.6c0.8-1,1.7-2,2.7-3.1c3-3.5,6.4-5.1,10.3-5.1
		c5,0,10.9,2.8,17.2,8.1c1.8-0.3,3.6-0.5,5.4-0.6C62.8,8.3,54.7,3,46.8,3L46.8,3z"/>
</g>
</svg>
